<svg xmlns="http://www.w3.org/2000/svg" xmlns:xlink="http://www.w3.org/1999/xlink" width="2000" zoomAndPan="magnify" viewBox="0 0 1500 1499.999933" height="2000" preserveAspectRatio="xMidYMid meet" version="1.0"><defs><g/><clipPath id="e2a5026713"><path d="M 306.386719 597.714844 L 597 597.714844 L 597 669 L 306.386719 669 Z M 306.386719 597.714844 " clip-rule="nonzero"/></clipPath><clipPath id="1ac689722b"><path d="M 459 597.714844 L 658 597.714844 L 658 902.214844 L 459 902.214844 Z M 459 597.714844 " clip-rule="nonzero"/></clipPath></defs><rect x="-150" width="1800" fill="#ffffff" y="-149.999993" height="1799.99992" fill-opacity="1"/><rect x="-150" width="1800" fill="#ffffff" y="-149.999993" height="1799.99992" fill-opacity="1"/><path fill="#ffffff" d="M 422.277344 722.835938 L 524.421875 722.832031 L 547.785156 682.488281 L 355.253906 682.496094 L 451.378906 848.96875 L 473.277344 811.160156 L 422.277344 722.835938 " fill-opacity="1" fill-rule="nonzero"/><g clip-path="url(#e2a5026713)"><path fill="#ffffff" d="M 373.382812 638.15625 L 573.464844 638.148438 L 596.828125 597.804688 L 306.359375 597.8125 L 347.351562 668.808594 L 391.082031 668.808594 L 373.382812 638.15625 " fill-opacity="1" fill-rule="nonzero"/></g><g clip-path="url(#1ac689722b)"><path fill="#ffffff" d="M 612.644531 597.804688 L 459.277344 862.652344 L 482.15625 902.273438 L 657.925781 597.800781 L 612.644531 597.804688 " fill-opacity="1" fill-rule="nonzero"/></g><g fill="#ffffff" fill-opacity="1"><g transform="translate(661.394517, 785.999912)"><g><path d="M 29.796875 -51.40625 L 29.796875 -37.703125 L 59 -37.703125 L 59 -25.5 L 29.796875 -25.5 L 29.796875 0 L 8.703125 0 L 8.703125 -66.59375 L 75.703125 -66.59375 L 75.703125 -51.40625 Z M 29.796875 -51.40625 "/></g></g></g><g fill="#ffffff" fill-opacity="1"><g transform="translate(740.691457, 785.999912)"><g><path d="M 85.59375 -28.5 C 85.59375 -24.300781 84.859375 -20.316406 83.390625 -16.546875 C 81.929688 -12.785156 79.617188 -9.488281 76.453125 -6.65625 C 73.285156 -3.820312 69.234375 -1.585938 64.296875 0.046875 C 59.367188 1.679688 53.4375 2.5 46.5 2.5 C 39.695312 2.5 33.84375 1.695312 28.9375 0.09375 C 24.039062 -1.5 19.992188 -3.695312 16.796875 -6.5 C 13.597656 -9.300781 11.25 -12.582031 9.75 -16.34375 C 8.25 -20.113281 7.5 -24.164062 7.5 -28.5 L 7.5 -66.59375 L 28.59375 -66.59375 L 28.59375 -29.5 C 28.59375 -24.300781 30.191406 -20.25 33.390625 -17.34375 C 36.597656 -14.445312 41.4375 -13 47.90625 -13 C 54.4375 -13 59.164062 -14.445312 62.09375 -17.34375 C 65.03125 -20.25 66.5 -24.300781 66.5 -29.5 L 66.5 -66.59375 L 85.59375 -66.59375 Z M 85.59375 -28.5 "/></g></g></g><g fill="#ffffff" fill-opacity="1"><g transform="translate(833.787865, 785.999912)"><g><path d="M 68.5 0 L 33.09375 -36 L 28.796875 -40.59375 L 28.796875 0 L 8.703125 0 L 8.703125 -66.59375 L 27.296875 -66.59375 L 62.09375 -30.703125 L 66.5 -26 L 66.5 -66.59375 L 86.59375 -66.59375 L 86.59375 0 Z M 68.5 0 "/></g></g></g><g fill="#ffffff" fill-opacity="1"><g transform="translate(929.084183, 785.999912)"><g><path d="M 68.5 0 L 33.09375 -36 L 28.796875 -40.59375 L 28.796875 0 L 8.703125 0 L 8.703125 -66.59375 L 27.296875 -66.59375 L 62.09375 -30.703125 L 66.5 -26 L 66.5 -66.59375 L 86.59375 -66.59375 L 86.59375 0 Z M 68.5 0 "/></g></g></g><g fill="#ffffff" fill-opacity="1"><g transform="translate(1024.380501, 785.999912)"><g><path d="M 8.703125 0 L 8.703125 -66.59375 L 76.796875 -66.59375 L 76.796875 -51.40625 L 29.90625 -51.40625 L 29.90625 -38.59375 L 63.5 -38.59375 L 63.5 -29.296875 L 29.90625 -29.296875 L 29.90625 -16 L 76.796875 -16 L 76.796875 0 Z M 8.703125 0 "/></g></g></g><g fill="#ffffff" fill-opacity="1"><g transform="translate(1107.477303, 785.999912)"><g><path d="M 8.703125 0 L 8.703125 -66.59375 L 29.90625 -66.59375 L 29.90625 -16 L 79.40625 -16 L 79.40625 0 Z M 8.703125 0 "/></g></g></g></svg>