<svg xmlns="http://www.w3.org/2000/svg" xmlns:xlink="http://www.w3.org/1999/xlink" width="1080" zoomAndPan="magnify" viewBox="0 0 810 809.999993" height="1080" preserveAspectRatio="xMidYMid meet" version="1.0"><defs><clipPath id="04414e062f"><path d="M 262.167969 281.3125 L 498.203125 281.3125 L 498.203125 339.269531 L 262.167969 339.269531 Z M 262.167969 281.3125 " clip-rule="nonzero"/></clipPath><clipPath id="6f2036b912"><path d="M 386 281.3125 L 547.621094 281.3125 L 547.621094 528.636719 L 386 528.636719 Z M 386 281.3125 " clip-rule="nonzero"/></clipPath></defs><path fill="#0e69e1" d="M 356.324219 382.925781 L 439.3125 382.921875 L 458.292969 350.144531 L 301.871094 350.152344 L 379.964844 485.402344 L 397.757812 454.683594 L 356.324219 382.925781 " fill-opacity="1" fill-rule="nonzero"/><g clip-path="url(#04414e062f)"><path fill="#0e69e1" d="M 316.597656 314.125 L 479.15625 314.117188 L 498.140625 281.339844 L 262.144531 281.347656 L 295.445312 339.027344 L 330.976562 339.027344 L 316.597656 314.125 " fill-opacity="1" fill-rule="nonzero"/></g><g clip-path="url(#6f2036b912)"><path fill="#0e69e1" d="M 510.988281 281.339844 L 386.382812 496.523438 L 404.972656 528.710938 L 547.777344 281.335938 L 510.988281 281.339844 " fill-opacity="1" fill-rule="nonzero"/></g></svg>